<svg aria-labelledby="chart-title-mermaid-1702886690189" aria-roledescription="er" role="graphics-document document" viewBox="0 -62 696.6210327148438 924" style="max-width: 696.621px; background-color: rgb(255, 255, 255);" xmlns:xlink="http://www.w3.org/1999/xlink" xmlns="http://www.w3.org/2000/svg" width="100%" id="mermaid-1702886690189"><title id="chart-title-mermaid-1702886690189">Munchie ERD</title><style>#mermaid-1702886690189{font-family:"trebuchet ms",verdana,arial,sans-serif;font-size:16px;fill:#333;}#mermaid-1702886690189 .error-icon{fill:#552222;}#mermaid-1702886690189 .error-text{fill:#552222;stroke:#552222;}#mermaid-1702886690189 .edge-thickness-normal{stroke-width:2px;}#mermaid-1702886690189 .edge-thickness-thick{stroke-width:3.5px;}#mermaid-1702886690189 .edge-pattern-solid{stroke-dasharray:0;}#mermaid-1702886690189 .edge-pattern-dashed{stroke-dasharray:3;}#mermaid-1702886690189 .edge-pattern-dotted{stroke-dasharray:2;}#mermaid-1702886690189 .marker{fill:#333333;stroke:#333333;}#mermaid-1702886690189 .marker.cross{stroke:#333333;}#mermaid-1702886690189 svg{font-family:"trebuchet ms",verdana,arial,sans-serif;font-size:16px;}#mermaid-1702886690189 .entityBox{fill:#ECECFF;stroke:#9370DB;}#mermaid-1702886690189 .attributeBoxOdd{fill:#ffffff;stroke:#9370DB;}#mermaid-1702886690189 .attributeBoxEven{fill:#f2f2f2;stroke:#9370DB;}#mermaid-1702886690189 .relationshipLabelBox{fill:hsl(80, 100%, 96.2745098039%);opacity:0.7;background-color:hsl(80, 100%, 96.2745098039%);}#mermaid-1702886690189 .relationshipLabelBox rect{opacity:0.5;}#mermaid-1702886690189 .relationshipLine{stroke:#333333;}#mermaid-1702886690189 .entityTitleText{text-anchor:middle;font-size:18px;fill:#333;}#mermaid-1702886690189 #MD_PARENT_START{fill:#f5f5f5!important;stroke:#333333!important;stroke-width:1;}#mermaid-1702886690189 #MD_PARENT_END{fill:#f5f5f5!important;stroke:#333333!important;stroke-width:1;}#mermaid-1702886690189 :root{--mermaid-font-family:"trebuchet ms",verdana,arial,sans-serif;}</style><g/><defs><marker orient="auto" markerHeight="240" markerWidth="190" refY="7" refX="0" id="MD_PARENT_START"><path d="M 18,7 L9,13 L1,7 L9,1 Z"/></marker></defs><defs><marker orient="auto" markerHeight="28" markerWidth="20" refY="7" refX="19" id="MD_PARENT_END"><path d="M 18,7 L9,13 L1,7 L9,1 Z"/></marker></defs><defs><marker orient="auto" markerHeight="18" markerWidth="18" refY="9" refX="0" id="ONLY_ONE_START"><path d="M9,0 L9,18 M15,0 L15,18" fill="none" stroke="gray"/></marker></defs><defs><marker orient="auto" markerHeight="18" markerWidth="18" refY="9" refX="18" id="ONLY_ONE_END"><path d="M3,0 L3,18 M9,0 L9,18" fill="none" stroke="gray"/></marker></defs><defs><marker orient="auto" markerHeight="18" markerWidth="30" refY="9" refX="0" id="ZERO_OR_ONE_START"><circle r="6" cy="9" cx="21" fill="white" stroke="gray"/><path d="M9,0 L9,18" fill="none" stroke="gray"/></marker></defs><defs><marker orient="auto" markerHeight="18" markerWidth="30" refY="9" refX="30" id="ZERO_OR_ONE_END"><circle r="6" cy="9" cx="9" fill="white" stroke="gray"/><path d="M21,0 L21,18" fill="none" stroke="gray"/></marker></defs><defs><marker orient="auto" markerHeight="36" markerWidth="45" refY="18" refX="18" id="ONE_OR_MORE_START"><path d="M0,18 Q 18,0 36,18 Q 18,36 0,18 M42,9 L42,27" fill="none" stroke="gray"/></marker></defs><defs><marker orient="auto" markerHeight="36" markerWidth="45" refY="18" refX="27" id="ONE_OR_MORE_END"><path d="M3,9 L3,27 M9,18 Q27,0 45,18 Q27,36 9,18" fill="none" stroke="gray"/></marker></defs><defs><marker orient="auto" markerHeight="36" markerWidth="57" refY="18" refX="18" id="ZERO_OR_MORE_START"><circle r="6" cy="18" cx="48" fill="white" stroke="gray"/><path d="M0,18 Q18,0 36,18 Q18,36 0,18" fill="none" stroke="gray"/></marker></defs><defs><marker orient="auto" markerHeight="36" markerWidth="57" refY="18" refX="39" id="ZERO_OR_MORE_END"><circle r="6" cy="18" cx="9" fill="white" stroke="gray"/><path d="M21,18 Q39,0 57,18 Q39,36 21,18" fill="none" stroke="gray"/></marker></defs><path style="stroke: gray; fill: none;" marker-start="url(#ZERO_OR_MORE_START)" marker-end="url(#ONLY_ONE_END)" d="M214.36173884988688,432L220.43161287010432,447.6666666666667C226.50148689032173,463.3333333333333,238.64123493075658,494.6666666666667,261.3777756176407,530.157323772663C284.1143163045247,565.6479808786593,317.4476496378581,605.2959617573187,334.1143163045247,625.1199521966482L350.7809829711914,644.9439426359779" class="er relationshipLine"/><path style="stroke: gray; fill: none;" marker-start="url(#ZERO_OR_MORE_START)" marker-end="url(#ONLY_ONE_END)" d="M404.63497161865234,443L404.63497161865234,456.8333333333333C404.63497161865234,470.6666666666667,404.63497161865234,498.3333333333333,404.63497161865234,524.1666666666666C404.63497161865234,550,404.63497161865234,574,404.63497161865234,586L404.63497161865234,598" class="er relationshipLine"/><path style="stroke: gray; fill: none;" marker-start="url(#ONE_OR_MORE_START)" marker-end="url(#ONLY_ONE_END)" d="M617.5550003051758,476L617.5550003051758,484.3333333333333C617.5550003051758,492.6666666666667,617.5550003051758,509.3333333333333,591.0439936319987,540.4522836474636C564.5329869588217,571.5712339615937,511.51097361246747,617.1424679231875,484.99996693929035,639.9280849039843L458.4889602661133,662.7137018847812" class="er relationshipLine"/><path style="stroke: gray; fill: none;" marker-start="url(#ONE_OR_MORE_START)" marker-end="url(#ONLY_ONE_END)" stroke-dasharray="8,8" d="M276.4600143432617,133.12299912299113L233.71667861938477,152.26916593582595C190.9733428955078,171.41533274866075,105.4866714477539,209.7076663743304,62.74333572387695,252.02049985383186C20,294.3333333333333,20,340.6666666666667,20,387C20,433.3333333333333,20,479.6666666666667,22.27686703096539,511.1666666666667C24.553734061930783,542.6666666666666,29.107468123861565,559.3333333333334,31.384335154826957,567.6666666666666L33.66120218579235,576" class="er relationshipLine"/><path style="stroke: gray; fill: none;" marker-start="url(#ONE_OR_MORE_START)" marker-end="url(#ONLY_ONE_END)" d="M180.73994396401824,432L175.1044523573036,447.6666666666667C169.468960750589,463.3333333333333,158.19797753715974,494.6666666666667,148.0746535431567,521.0093428940037C137.95132954915366,547.3520191213407,128.9756647745768,568.7040382426813,124.4878323872884,579.3800478033518L120,590.0560573640221" class="er relationshipLine"/><path style="stroke: gray; fill: none;" marker-start="url(#ZERO_OR_MORE_START)" marker-end="url(#ONLY_ONE_END)" d="M384.1679916381836,135.06071031636964L423.0658264160156,153.88392526364137C461.96366119384766,172.70714021091308,539.7593307495117,210.35357010545655,578.6571655273438,237.51011838606163C617.5550003051758,264.6666666666667,617.5550003051758,281.3333333333333,617.5550003051758,289.6666666666667L617.5550003051758,298" class="er relationshipLine"/><g transform="translate(20,576 )" id="entity-USER-6e7e2962-0c6f-577d-a7fd-2ce3a0cfd2c8"><rect height="266" width="100" y="0" x="0" class="er entityBox"/><text style="dominant-baseline: middle; text-anchor: middle; font-size: 12px;" transform="translate(50,12)" y="0" x="0" id="text-entity-USER-6e7e2962-0c6f-577d-a7fd-2ce3a0cfd2c8" class="er entityLabel">USER</text><rect height="22" width="46.98682403564453" y="24" x="0" class="er attributeBoxOdd"/><text style="dominant-baseline: middle; font-size: 10.2px;" transform="translate(5,35)" y="0" x="0" id="text-entity-USER-6e7e2962-0c6f-577d-a7fd-2ce3a0cfd2c8-attr-1-type" class="er entityLabel">int</text><rect height="22" width="53.01317596435547" y="24" x="46.98682403564453" class="er attributeBoxOdd"/><text style="dominant-baseline: middle; font-size: 10.2px;" transform="translate(51.98682403564453,35)" y="0" x="0" id="text-entity-USER-6e7e2962-0c6f-577d-a7fd-2ce3a0cfd2c8-attr-1-name" class="er entityLabel">id</text><rect height="22" width="46.98682403564453" y="46" x="0" class="er attributeBoxEven"/><text style="dominant-baseline: middle; font-size: 10.2px;" transform="translate(5,57)" y="0" x="0" id="text-entity-USER-6e7e2962-0c6f-577d-a7fd-2ce3a0cfd2c8-attr-2-type" class="er entityLabel">varchar</text><rect height="22" width="53.01317596435547" y="46" x="46.98682403564453" class="er attributeBoxEven"/><text style="dominant-baseline: middle; font-size: 10.2px;" transform="translate(51.98682403564453,57)" y="0" x="0" id="text-entity-USER-6e7e2962-0c6f-577d-a7fd-2ce3a0cfd2c8-attr-2-name" class="er entityLabel">name</text><rect height="22" width="46.98682403564453" y="68" x="0" class="er attributeBoxOdd"/><text style="dominant-baseline: middle; font-size: 10.2px;" transform="translate(5,79)" y="0" x="0" id="text-entity-USER-6e7e2962-0c6f-577d-a7fd-2ce3a0cfd2c8-attr-3-type" class="er entityLabel">varchar</text><rect height="22" width="53.01317596435547" y="68" x="46.98682403564453" class="er attributeBoxOdd"/><text style="dominant-baseline: middle; font-size: 10.2px;" transform="translate(51.98682403564453,79)" y="0" x="0" id="text-entity-USER-6e7e2962-0c6f-577d-a7fd-2ce3a0cfd2c8-attr-3-name" class="er entityLabel">email</text><rect height="22" width="46.98682403564453" y="90" x="0" class="er attributeBoxEven"/><text style="dominant-baseline: middle; font-size: 10.2px;" transform="translate(5,101)" y="0" x="0" id="text-entity-USER-6e7e2962-0c6f-577d-a7fd-2ce3a0cfd2c8-attr-4-type" class="er entityLabel">varchar</text><rect height="22" width="53.01317596435547" y="90" x="46.98682403564453" class="er attributeBoxEven"/><text style="dominant-baseline: middle; font-size: 10.2px;" transform="translate(51.98682403564453,101)" y="0" x="0" id="text-entity-USER-6e7e2962-0c6f-577d-a7fd-2ce3a0cfd2c8-attr-4-name" class="er entityLabel">password</text><rect height="22" width="46.98682403564453" y="112" x="0" class="er attributeBoxOdd"/><text style="dominant-baseline: middle; font-size: 10.2px;" transform="translate(5,123)" y="0" x="0" id="text-entity-USER-6e7e2962-0c6f-577d-a7fd-2ce3a0cfd2c8-attr-5-type" class="er entityLabel">varchar</text><rect height="22" width="53.01317596435547" y="112" x="46.98682403564453" class="er attributeBoxOdd"/><text style="dominant-baseline: middle; font-size: 10.2px;" transform="translate(51.98682403564453,123)" y="0" x="0" id="text-entity-USER-6e7e2962-0c6f-577d-a7fd-2ce3a0cfd2c8-attr-5-name" class="er entityLabel">phone</text><rect height="22" width="46.98682403564453" y="134" x="0" class="er attributeBoxEven"/><text style="dominant-baseline: middle; font-size: 10.2px;" transform="translate(5,145)" y="0" x="0" id="text-entity-USER-6e7e2962-0c6f-577d-a7fd-2ce3a0cfd2c8-attr-6-type" class="er entityLabel">varchar</text><rect height="22" width="53.01317596435547" y="134" x="46.98682403564453" class="er attributeBoxEven"/><text style="dominant-baseline: middle; font-size: 10.2px;" transform="translate(51.98682403564453,145)" y="0" x="0" id="text-entity-USER-6e7e2962-0c6f-577d-a7fd-2ce3a0cfd2c8-attr-6-name" class="er entityLabel">address</text><rect height="22" width="46.98682403564453" y="156" x="0" class="er attributeBoxOdd"/><text style="dominant-baseline: middle; font-size: 10.2px;" transform="translate(5,167)" y="0" x="0" id="text-entity-USER-6e7e2962-0c6f-577d-a7fd-2ce3a0cfd2c8-attr-7-type" class="er entityLabel">varchar</text><rect height="22" width="53.01317596435547" y="156" x="46.98682403564453" class="er attributeBoxOdd"/><text style="dominant-baseline: middle; font-size: 10.2px;" transform="translate(51.98682403564453,167)" y="0" x="0" id="text-entity-USER-6e7e2962-0c6f-577d-a7fd-2ce3a0cfd2c8-attr-7-name" class="er entityLabel">city</text><rect height="22" width="46.98682403564453" y="178" x="0" class="er attributeBoxEven"/><text style="dominant-baseline: middle; font-size: 10.2px;" transform="translate(5,189)" y="0" x="0" id="text-entity-USER-6e7e2962-0c6f-577d-a7fd-2ce3a0cfd2c8-attr-8-type" class="er entityLabel">varchar</text><rect height="22" width="53.01317596435547" y="178" x="46.98682403564453" class="er attributeBoxEven"/><text style="dominant-baseline: middle; font-size: 10.2px;" transform="translate(51.98682403564453,189)" y="0" x="0" id="text-entity-USER-6e7e2962-0c6f-577d-a7fd-2ce3a0cfd2c8-attr-8-name" class="er entityLabel">state</text><rect height="22" width="46.98682403564453" y="200" x="0" class="er attributeBoxOdd"/><text style="dominant-baseline: middle; font-size: 10.2px;" transform="translate(5,211)" y="0" x="0" id="text-entity-USER-6e7e2962-0c6f-577d-a7fd-2ce3a0cfd2c8-attr-9-type" class="er entityLabel">varchar</text><rect height="22" width="53.01317596435547" y="200" x="46.98682403564453" class="er attributeBoxOdd"/><text style="dominant-baseline: middle; font-size: 10.2px;" transform="translate(51.98682403564453,211)" y="0" x="0" id="text-entity-USER-6e7e2962-0c6f-577d-a7fd-2ce3a0cfd2c8-attr-9-name" class="er entityLabel">zip</text><rect height="22" width="46.98682403564453" y="222" x="0" class="er attributeBoxEven"/><text style="dominant-baseline: middle; font-size: 10.2px;" transform="translate(5,233)" y="0" x="0" id="text-entity-USER-6e7e2962-0c6f-577d-a7fd-2ce3a0cfd2c8-attr-10-type" class="er entityLabel">varchar</text><rect height="22" width="53.01317596435547" y="222" x="46.98682403564453" class="er attributeBoxEven"/><text style="dominant-baseline: middle; font-size: 10.2px;" transform="translate(51.98682403564453,233)" y="0" x="0" id="text-entity-USER-6e7e2962-0c6f-577d-a7fd-2ce3a0cfd2c8-attr-10-name" class="er entityLabel">country</text><rect height="22" width="46.98682403564453" y="244" x="0" class="er attributeBoxOdd"/><text style="dominant-baseline: middle; font-size: 10.2px;" transform="translate(5,255)" y="0" x="0" id="text-entity-USER-6e7e2962-0c6f-577d-a7fd-2ce3a0cfd2c8-attr-11-type" class="er entityLabel">varchar</text><rect height="22" width="53.01317596435547" y="244" x="46.98682403564453" class="er attributeBoxOdd"/><text style="dominant-baseline: middle; font-size: 10.2px;" transform="translate(51.98682403564453,255)" y="0" x="0" id="text-entity-USER-6e7e2962-0c6f-577d-a7fd-2ce3a0cfd2c8-attr-11-name" class="er entityLabel">role</text></g><g transform="translate(276.4600143432617,20 )" id="entity-MUNCHIE-e4c5ae4c-b258-51ae-9d12-0fd5c4bfd068"><rect height="178" width="107.70797729492188" y="0" x="0" class="er entityBox"/><text style="dominant-baseline: middle; text-anchor: middle; font-size: 12px;" transform="translate(53.85398864746094,12)" y="0" x="0" id="text-entity-MUNCHIE-e4c5ae4c-b258-51ae-9d12-0fd5c4bfd068" class="er entityLabel">MUNCHIE</text><rect height="22" width="46.30113220214844" y="24" x="0" class="er attributeBoxOdd"/><text style="dominant-baseline: middle; font-size: 10.2px;" transform="translate(5,35)" y="0" x="0" id="text-entity-MUNCHIE-e4c5ae4c-b258-51ae-9d12-0fd5c4bfd068-attr-1-type" class="er entityLabel">int</text><rect height="22" width="61.40684509277344" y="24" x="46.30113220214844" class="er attributeBoxOdd"/><text style="dominant-baseline: middle; font-size: 10.2px;" transform="translate(51.30113220214844,35)" y="0" x="0" id="text-entity-MUNCHIE-e4c5ae4c-b258-51ae-9d12-0fd5c4bfd068-attr-1-name" class="er entityLabel">id</text><rect height="22" width="46.30113220214844" y="46" x="0" class="er attributeBoxEven"/><text style="dominant-baseline: middle; font-size: 10.2px;" transform="translate(5,57)" y="0" x="0" id="text-entity-MUNCHIE-e4c5ae4c-b258-51ae-9d12-0fd5c4bfd068-attr-2-type" class="er entityLabel">varchar</text><rect height="22" width="61.40684509277344" y="46" x="46.30113220214844" class="er attributeBoxEven"/><text style="dominant-baseline: middle; font-size: 10.2px;" transform="translate(51.30113220214844,57)" y="0" x="0" id="text-entity-MUNCHIE-e4c5ae4c-b258-51ae-9d12-0fd5c4bfd068-attr-2-name" class="er entityLabel">name</text><rect height="22" width="46.30113220214844" y="68" x="0" class="er attributeBoxOdd"/><text style="dominant-baseline: middle; font-size: 10.2px;" transform="translate(5,79)" y="0" x="0" id="text-entity-MUNCHIE-e4c5ae4c-b258-51ae-9d12-0fd5c4bfd068-attr-3-type" class="er entityLabel">varchar</text><rect height="22" width="61.40684509277344" y="68" x="46.30113220214844" class="er attributeBoxOdd"/><text style="dominant-baseline: middle; font-size: 10.2px;" transform="translate(51.30113220214844,79)" y="0" x="0" id="text-entity-MUNCHIE-e4c5ae4c-b258-51ae-9d12-0fd5c4bfd068-attr-3-name" class="er entityLabel">description</text><rect height="22" width="46.30113220214844" y="90" x="0" class="er attributeBoxEven"/><text style="dominant-baseline: middle; font-size: 10.2px;" transform="translate(5,101)" y="0" x="0" id="text-entity-MUNCHIE-e4c5ae4c-b258-51ae-9d12-0fd5c4bfd068-attr-4-type" class="er entityLabel">varchar</text><rect height="22" width="61.40684509277344" y="90" x="46.30113220214844" class="er attributeBoxEven"/><text style="dominant-baseline: middle; font-size: 10.2px;" transform="translate(51.30113220214844,101)" y="0" x="0" id="text-entity-MUNCHIE-e4c5ae4c-b258-51ae-9d12-0fd5c4bfd068-attr-4-name" class="er entityLabel">image</text><rect height="22" width="46.30113220214844" y="112" x="0" class="er attributeBoxOdd"/><text style="dominant-baseline: middle; font-size: 10.2px;" transform="translate(5,123)" y="0" x="0" id="text-entity-MUNCHIE-e4c5ae4c-b258-51ae-9d12-0fd5c4bfd068-attr-5-type" class="er entityLabel">double</text><rect height="22" width="61.40684509277344" y="112" x="46.30113220214844" class="er attributeBoxOdd"/><text style="dominant-baseline: middle; font-size: 10.2px;" transform="translate(51.30113220214844,123)" y="0" x="0" id="text-entity-MUNCHIE-e4c5ae4c-b258-51ae-9d12-0fd5c4bfd068-attr-5-name" class="er entityLabel">price</text><rect height="22" width="46.30113220214844" y="134" x="0" class="er attributeBoxEven"/><text style="dominant-baseline: middle; font-size: 10.2px;" transform="translate(5,145)" y="0" x="0" id="text-entity-MUNCHIE-e4c5ae4c-b258-51ae-9d12-0fd5c4bfd068-attr-6-type" class="er entityLabel">int</text><rect height="22" width="61.40684509277344" y="134" x="46.30113220214844" class="er attributeBoxEven"/><text style="dominant-baseline: middle; font-size: 10.2px;" transform="translate(51.30113220214844,145)" y="0" x="0" id="text-entity-MUNCHIE-e4c5ae4c-b258-51ae-9d12-0fd5c4bfd068-attr-6-name" class="er entityLabel">quantity</text><rect height="22" width="46.30113220214844" y="156" x="0" class="er attributeBoxOdd"/><text style="dominant-baseline: middle; font-size: 10.2px;" transform="translate(5,167)" y="0" x="0" id="text-entity-MUNCHIE-e4c5ae4c-b258-51ae-9d12-0fd5c4bfd068-attr-7-type" class="er entityLabel">int</text><rect height="22" width="61.40684509277344" y="156" x="46.30113220214844" class="er attributeBoxOdd"/><text style="dominant-baseline: middle; font-size: 10.2px;" transform="translate(51.30113220214844,167)" y="0" x="0" id="text-entity-MUNCHIE-e4c5ae4c-b258-51ae-9d12-0fd5c4bfd068-attr-7-name" class="er entityLabel">user_id</text></g><g transform="translate(350.7809829711914,598 )" id="entity-RESTAURANT-8439aa6b-f9e9-5033-874d-9aa00d17f2b1"><rect height="222" width="107.70797729492188" y="0" x="0" class="er entityBox"/><text style="dominant-baseline: middle; text-anchor: middle; font-size: 12px;" transform="translate(53.85398864746094,12)" y="0" x="0" id="text-entity-RESTAURANT-8439aa6b-f9e9-5033-874d-9aa00d17f2b1" class="er entityLabel">RESTAURANT</text><rect height="22" width="46.30113220214844" y="24" x="0" class="er attributeBoxOdd"/><text style="dominant-baseline: middle; font-size: 10.2px;" transform="translate(5,35)" y="0" x="0" id="text-entity-RESTAURANT-8439aa6b-f9e9-5033-874d-9aa00d17f2b1-attr-1-type" class="er entityLabel">int</text><rect height="22" width="61.40684509277344" y="24" x="46.30113220214844" class="er attributeBoxOdd"/><text style="dominant-baseline: middle; font-size: 10.2px;" transform="translate(51.30113220214844,35)" y="0" x="0" id="text-entity-RESTAURANT-8439aa6b-f9e9-5033-874d-9aa00d17f2b1-attr-1-name" class="er entityLabel">id</text><rect height="22" width="46.30113220214844" y="46" x="0" class="er attributeBoxEven"/><text style="dominant-baseline: middle; font-size: 10.2px;" transform="translate(5,57)" y="0" x="0" id="text-entity-RESTAURANT-8439aa6b-f9e9-5033-874d-9aa00d17f2b1-attr-2-type" class="er entityLabel">varchar</text><rect height="22" width="61.40684509277344" y="46" x="46.30113220214844" class="er attributeBoxEven"/><text style="dominant-baseline: middle; font-size: 10.2px;" transform="translate(51.30113220214844,57)" y="0" x="0" id="text-entity-RESTAURANT-8439aa6b-f9e9-5033-874d-9aa00d17f2b1-attr-2-name" class="er entityLabel">name</text><rect height="22" width="46.30113220214844" y="68" x="0" class="er attributeBoxOdd"/><text style="dominant-baseline: middle; font-size: 10.2px;" transform="translate(5,79)" y="0" x="0" id="text-entity-RESTAURANT-8439aa6b-f9e9-5033-874d-9aa00d17f2b1-attr-3-type" class="er entityLabel">varchar</text><rect height="22" width="61.40684509277344" y="68" x="46.30113220214844" class="er attributeBoxOdd"/><text style="dominant-baseline: middle; font-size: 10.2px;" transform="translate(51.30113220214844,79)" y="0" x="0" id="text-entity-RESTAURANT-8439aa6b-f9e9-5033-874d-9aa00d17f2b1-attr-3-name" class="er entityLabel">description</text><rect height="22" width="46.30113220214844" y="90" x="0" class="er attributeBoxEven"/><text style="dominant-baseline: middle; font-size: 10.2px;" transform="translate(5,101)" y="0" x="0" id="text-entity-RESTAURANT-8439aa6b-f9e9-5033-874d-9aa00d17f2b1-attr-4-type" class="er entityLabel">varchar</text><rect height="22" width="61.40684509277344" y="90" x="46.30113220214844" class="er attributeBoxEven"/><text style="dominant-baseline: middle; font-size: 10.2px;" transform="translate(51.30113220214844,101)" y="0" x="0" id="text-entity-RESTAURANT-8439aa6b-f9e9-5033-874d-9aa00d17f2b1-attr-4-name" class="er entityLabel">image</text><rect height="22" width="46.30113220214844" y="112" x="0" class="er attributeBoxOdd"/><text style="dominant-baseline: middle; font-size: 10.2px;" transform="translate(5,123)" y="0" x="0" id="text-entity-RESTAURANT-8439aa6b-f9e9-5033-874d-9aa00d17f2b1-attr-5-type" class="er entityLabel">varchar</text><rect height="22" width="61.40684509277344" y="112" x="46.30113220214844" class="er attributeBoxOdd"/><text style="dominant-baseline: middle; font-size: 10.2px;" transform="translate(51.30113220214844,123)" y="0" x="0" id="text-entity-RESTAURANT-8439aa6b-f9e9-5033-874d-9aa00d17f2b1-attr-5-name" class="er entityLabel">phone</text><rect height="22" width="46.30113220214844" y="134" x="0" class="er attributeBoxEven"/><text style="dominant-baseline: middle; font-size: 10.2px;" transform="translate(5,145)" y="0" x="0" id="text-entity-RESTAURANT-8439aa6b-f9e9-5033-874d-9aa00d17f2b1-attr-6-type" class="er entityLabel">varchar</text><rect height="22" width="61.40684509277344" y="134" x="46.30113220214844" class="er attributeBoxEven"/><text style="dominant-baseline: middle; font-size: 10.2px;" transform="translate(51.30113220214844,145)" y="0" x="0" id="text-entity-RESTAURANT-8439aa6b-f9e9-5033-874d-9aa00d17f2b1-attr-6-name" class="er entityLabel">address</text><rect height="22" width="46.30113220214844" y="156" x="0" class="er attributeBoxOdd"/><text style="dominant-baseline: middle; font-size: 10.2px;" transform="translate(5,167)" y="0" x="0" id="text-entity-RESTAURANT-8439aa6b-f9e9-5033-874d-9aa00d17f2b1-attr-7-type" class="er entityLabel">varchar</text><rect height="22" width="61.40684509277344" y="156" x="46.30113220214844" class="er attributeBoxOdd"/><text style="dominant-baseline: middle; font-size: 10.2px;" transform="translate(51.30113220214844,167)" y="0" x="0" id="text-entity-RESTAURANT-8439aa6b-f9e9-5033-874d-9aa00d17f2b1-attr-7-name" class="er entityLabel">city</text><rect height="22" width="46.30113220214844" y="178" x="0" class="er attributeBoxEven"/><text style="dominant-baseline: middle; font-size: 10.2px;" transform="translate(5,189)" y="0" x="0" id="text-entity-RESTAURANT-8439aa6b-f9e9-5033-874d-9aa00d17f2b1-attr-8-type" class="er entityLabel">varchar</text><rect height="22" width="61.40684509277344" y="178" x="46.30113220214844" class="er attributeBoxEven"/><text style="dominant-baseline: middle; font-size: 10.2px;" transform="translate(51.30113220214844,189)" y="0" x="0" id="text-entity-RESTAURANT-8439aa6b-f9e9-5033-874d-9aa00d17f2b1-attr-8-name" class="er entityLabel">state</text><rect height="22" width="46.30113220214844" y="200" x="0" class="er attributeBoxOdd"/><text style="dominant-baseline: middle; font-size: 10.2px;" transform="translate(5,211)" y="0" x="0" id="text-entity-RESTAURANT-8439aa6b-f9e9-5033-874d-9aa00d17f2b1-attr-9-type" class="er entityLabel">varchar</text><rect height="22" width="61.40684509277344" y="200" x="46.30113220214844" class="er attributeBoxOdd"/><text style="dominant-baseline: middle; font-size: 10.2px;" transform="translate(51.30113220214844,211)" y="0" x="0" id="text-entity-RESTAURANT-8439aa6b-f9e9-5033-874d-9aa00d17f2b1-attr-9-name" class="er entityLabel">zip</text></g><g transform="translate(558.4889602661133,298 )" id="entity-FOOD-95a09c72-c774-5b79-a853-d52b3459c4e6"><rect height="178" width="118.132080078125" y="0" x="0" class="er entityBox"/><text style="dominant-baseline: middle; text-anchor: middle; font-size: 12px;" transform="translate(59.0660400390625,12)" y="0" x="0" id="text-entity-FOOD-95a09c72-c774-5b79-a853-d52b3459c4e6" class="er entityLabel">FOOD</text><rect height="22" width="46.30113220214844" y="24" x="0" class="er attributeBoxOdd"/><text style="dominant-baseline: middle; font-size: 10.2px;" transform="translate(5,35)" y="0" x="0" id="text-entity-FOOD-95a09c72-c774-5b79-a853-d52b3459c4e6-attr-1-type" class="er entityLabel">int</text><rect height="22" width="71.83094787597656" y="24" x="46.30113220214844" class="er attributeBoxOdd"/><text style="dominant-baseline: middle; font-size: 10.2px;" transform="translate(51.30113220214844,35)" y="0" x="0" id="text-entity-FOOD-95a09c72-c774-5b79-a853-d52b3459c4e6-attr-1-name" class="er entityLabel">id</text><rect height="22" width="46.30113220214844" y="46" x="0" class="er attributeBoxEven"/><text style="dominant-baseline: middle; font-size: 10.2px;" transform="translate(5,57)" y="0" x="0" id="text-entity-FOOD-95a09c72-c774-5b79-a853-d52b3459c4e6-attr-2-type" class="er entityLabel">varchar</text><rect height="22" width="71.83094787597656" y="46" x="46.30113220214844" class="er attributeBoxEven"/><text style="dominant-baseline: middle; font-size: 10.2px;" transform="translate(51.30113220214844,57)" y="0" x="0" id="text-entity-FOOD-95a09c72-c774-5b79-a853-d52b3459c4e6-attr-2-name" class="er entityLabel">name</text><rect height="22" width="46.30113220214844" y="68" x="0" class="er attributeBoxOdd"/><text style="dominant-baseline: middle; font-size: 10.2px;" transform="translate(5,79)" y="0" x="0" id="text-entity-FOOD-95a09c72-c774-5b79-a853-d52b3459c4e6-attr-3-type" class="er entityLabel">varchar</text><rect height="22" width="71.83094787597656" y="68" x="46.30113220214844" class="er attributeBoxOdd"/><text style="dominant-baseline: middle; font-size: 10.2px;" transform="translate(51.30113220214844,79)" y="0" x="0" id="text-entity-FOOD-95a09c72-c774-5b79-a853-d52b3459c4e6-attr-3-name" class="er entityLabel">description</text><rect height="22" width="46.30113220214844" y="90" x="0" class="er attributeBoxEven"/><text style="dominant-baseline: middle; font-size: 10.2px;" transform="translate(5,101)" y="0" x="0" id="text-entity-FOOD-95a09c72-c774-5b79-a853-d52b3459c4e6-attr-4-type" class="er entityLabel">varchar</text><rect height="22" width="71.83094787597656" y="90" x="46.30113220214844" class="er attributeBoxEven"/><text style="dominant-baseline: middle; font-size: 10.2px;" transform="translate(51.30113220214844,101)" y="0" x="0" id="text-entity-FOOD-95a09c72-c774-5b79-a853-d52b3459c4e6-attr-4-name" class="er entityLabel">image</text><rect height="22" width="46.30113220214844" y="112" x="0" class="er attributeBoxOdd"/><text style="dominant-baseline: middle; font-size: 10.2px;" transform="translate(5,123)" y="0" x="0" id="text-entity-FOOD-95a09c72-c774-5b79-a853-d52b3459c4e6-attr-5-type" class="er entityLabel">double</text><rect height="22" width="71.83094787597656" y="112" x="46.30113220214844" class="er attributeBoxOdd"/><text style="dominant-baseline: middle; font-size: 10.2px;" transform="translate(51.30113220214844,123)" y="0" x="0" id="text-entity-FOOD-95a09c72-c774-5b79-a853-d52b3459c4e6-attr-5-name" class="er entityLabel">price</text><rect height="22" width="46.30113220214844" y="134" x="0" class="er attributeBoxEven"/><text style="dominant-baseline: middle; font-size: 10.2px;" transform="translate(5,145)" y="0" x="0" id="text-entity-FOOD-95a09c72-c774-5b79-a853-d52b3459c4e6-attr-6-type" class="er entityLabel">int</text><rect height="22" width="71.83094787597656" y="134" x="46.30113220214844" class="er attributeBoxEven"/><text style="dominant-baseline: middle; font-size: 10.2px;" transform="translate(51.30113220214844,145)" y="0" x="0" id="text-entity-FOOD-95a09c72-c774-5b79-a853-d52b3459c4e6-attr-6-name" class="er entityLabel">quantity</text><rect height="22" width="46.30113220214844" y="156" x="0" class="er attributeBoxOdd"/><text style="dominant-baseline: middle; font-size: 10.2px;" transform="translate(5,167)" y="0" x="0" id="text-entity-FOOD-95a09c72-c774-5b79-a853-d52b3459c4e6-attr-7-type" class="er entityLabel">int</text><rect height="22" width="71.83094787597656" y="156" x="46.30113220214844" class="er attributeBoxOdd"/><text style="dominant-baseline: middle; font-size: 10.2px;" transform="translate(51.30113220214844,167)" y="0" x="0" id="text-entity-FOOD-95a09c72-c774-5b79-a853-d52b3459c4e6-attr-7-name" class="er entityLabel">restaurant_id</text></g><g transform="translate(350.7809829711914,331 )" id="entity-DEALS-1bfc4507-606a-58bc-a91b-ceff55e050ab"><rect height="112" width="107.70797729492188" y="0" x="0" class="er entityBox"/><text style="dominant-baseline: middle; text-anchor: middle; font-size: 12px;" transform="translate(53.85398864746094,12)" y="0" x="0" id="text-entity-DEALS-1bfc4507-606a-58bc-a91b-ceff55e050ab" class="er entityLabel">DEALS</text><rect height="22" width="46.30113220214844" y="24" x="0" class="er attributeBoxOdd"/><text style="dominant-baseline: middle; font-size: 10.2px;" transform="translate(5,35)" y="0" x="0" id="text-entity-DEALS-1bfc4507-606a-58bc-a91b-ceff55e050ab-attr-1-type" class="er entityLabel">int</text><rect height="22" width="61.40684509277344" y="24" x="46.30113220214844" class="er attributeBoxOdd"/><text style="dominant-baseline: middle; font-size: 10.2px;" transform="translate(51.30113220214844,35)" y="0" x="0" id="text-entity-DEALS-1bfc4507-606a-58bc-a91b-ceff55e050ab-attr-1-name" class="er entityLabel">id</text><rect height="22" width="46.30113220214844" y="46" x="0" class="er attributeBoxEven"/><text style="dominant-baseline: middle; font-size: 10.2px;" transform="translate(5,57)" y="0" x="0" id="text-entity-DEALS-1bfc4507-606a-58bc-a91b-ceff55e050ab-attr-2-type" class="er entityLabel">varchar</text><rect height="22" width="61.40684509277344" y="46" x="46.30113220214844" class="er attributeBoxEven"/><text style="dominant-baseline: middle; font-size: 10.2px;" transform="translate(51.30113220214844,57)" y="0" x="0" id="text-entity-DEALS-1bfc4507-606a-58bc-a91b-ceff55e050ab-attr-2-name" class="er entityLabel">name</text><rect height="22" width="46.30113220214844" y="68" x="0" class="er attributeBoxOdd"/><text style="dominant-baseline: middle; font-size: 10.2px;" transform="translate(5,79)" y="0" x="0" id="text-entity-DEALS-1bfc4507-606a-58bc-a91b-ceff55e050ab-attr-3-type" class="er entityLabel">varchar</text><rect height="22" width="61.40684509277344" y="68" x="46.30113220214844" class="er attributeBoxOdd"/><text style="dominant-baseline: middle; font-size: 10.2px;" transform="translate(51.30113220214844,79)" y="0" x="0" id="text-entity-DEALS-1bfc4507-606a-58bc-a91b-ceff55e050ab-attr-3-name" class="er entityLabel">description</text><rect height="22" width="46.30113220214844" y="90" x="0" class="er attributeBoxEven"/><text style="dominant-baseline: middle; font-size: 10.2px;" transform="translate(5,101)" y="0" x="0" id="text-entity-DEALS-1bfc4507-606a-58bc-a91b-ceff55e050ab-attr-4-type" class="er entityLabel">varchar</text><rect height="22" width="61.40684509277344" y="90" x="46.30113220214844" class="er attributeBoxEven"/><text style="dominant-baseline: middle; font-size: 10.2px;" transform="translate(51.30113220214844,101)" y="0" x="0" id="text-entity-DEALS-1bfc4507-606a-58bc-a91b-ceff55e050ab-attr-4-name" class="er entityLabel">image</text></g><g transform="translate(143.07300567626953,342 )" id="entity-REVIEW-39f1e8d0-9e3b-5c04-a665-2df785f19ed7"><rect height="90" width="107.70797729492188" y="0" x="0" class="er entityBox"/><text style="dominant-baseline: middle; text-anchor: middle; font-size: 12px;" transform="translate(53.85398864746094,12)" y="0" x="0" id="text-entity-REVIEW-39f1e8d0-9e3b-5c04-a665-2df785f19ed7" class="er entityLabel">REVIEW</text><rect height="22" width="46.30113220214844" y="24" x="0" class="er attributeBoxOdd"/><text style="dominant-baseline: middle; font-size: 10.2px;" transform="translate(5,35)" y="0" x="0" id="text-entity-REVIEW-39f1e8d0-9e3b-5c04-a665-2df785f19ed7-attr-1-type" class="er entityLabel">int</text><rect height="22" width="61.40684509277344" y="24" x="46.30113220214844" class="er attributeBoxOdd"/><text style="dominant-baseline: middle; font-size: 10.2px;" transform="translate(51.30113220214844,35)" y="0" x="0" id="text-entity-REVIEW-39f1e8d0-9e3b-5c04-a665-2df785f19ed7-attr-1-name" class="er entityLabel">id</text><rect height="22" width="46.30113220214844" y="46" x="0" class="er attributeBoxEven"/><text style="dominant-baseline: middle; font-size: 10.2px;" transform="translate(5,57)" y="0" x="0" id="text-entity-REVIEW-39f1e8d0-9e3b-5c04-a665-2df785f19ed7-attr-2-type" class="er entityLabel">varchar</text><rect height="22" width="61.40684509277344" y="46" x="46.30113220214844" class="er attributeBoxEven"/><text style="dominant-baseline: middle; font-size: 10.2px;" transform="translate(51.30113220214844,57)" y="0" x="0" id="text-entity-REVIEW-39f1e8d0-9e3b-5c04-a665-2df785f19ed7-attr-2-name" class="er entityLabel">description</text><rect height="22" width="46.30113220214844" y="68" x="0" class="er attributeBoxOdd"/><text style="dominant-baseline: middle; font-size: 10.2px;" transform="translate(5,79)" y="0" x="0" id="text-entity-REVIEW-39f1e8d0-9e3b-5c04-a665-2df785f19ed7-attr-3-type" class="er entityLabel">int</text><rect height="22" width="61.40684509277344" y="68" x="46.30113220214844" class="er attributeBoxOdd"/><text style="dominant-baseline: middle; font-size: 10.2px;" transform="translate(51.30113220214844,79)" y="0" x="0" id="text-entity-REVIEW-39f1e8d0-9e3b-5c04-a665-2df785f19ed7-attr-3-name" class="er entityLabel">rating</text></g><rect height="14" width="17.861328125" y="538.3352661132812" x="262.609619140625" class="er relationshipLabelBox"/><text style="text-anchor: middle; dominant-baseline: middle; font-size: 12px;" y="545.3352661132812" x="271.540283203125" id="rel275" class="er relationshipLabel">has</text><rect height="14" width="31.51953125" y="513.5" x="388.8752136230469" class="er relationshipLabelBox"/><text style="text-anchor: middle; dominant-baseline: middle; font-size: 12px;" y="520.5" x="404.6349792480469" id="rel276" class="er relationshipLabel">offers</text><rect height="14" width="23.48046875" y="572.325927734375" x="541.3746337890625" class="er relationshipLabelBox"/><text style="text-anchor: middle; dominant-baseline: middle; font-size: 12px;" y="579.325927734375" x="553.1148681640625" id="rel277" class="er relationshipLabel">sells</text><rect height="14" width="26.92578125" y="281.3982238769531" x="22.502540588378906" class="er relationshipLabelBox"/><text style="text-anchor: middle; dominant-baseline: middle; font-size: 12px;" y="288.3982238769531" x="35.965431213378906" id="rel278" class="er relationshipLabel">owns</text><rect height="13.999969482421875" width="32.791015625" y="504.5359344482422" x="135.28927612304688" class="er relationshipLabelBox"/><text style="text-anchor: middle; dominant-baseline: middle; font-size: 12px;" y="511.5359191894531" x="151.68478393554688" id="rel279" class="er relationshipLabel">wrote</text><rect height="14" width="44.978515625" y="193.934326171875" x="494.24884033203125" class="er relationshipLabelBox"/><text style="text-anchor: middle; dominant-baseline: middle; font-size: 12px;" y="200.934326171875" x="516.7380981445312" id="rel280" class="er relationshipLabel">contains</text><text class="entityTitleText" y="-25" x="348.3105163574219">Munchie ERD</text></svg>